<?xml version="1.0" encoding="utf-8"?>
<!-- Generator: Adobe Illustrator 16.0.0, SVG Export Plug-In . SVG Version: 6.00 Build 0)  -->
<!DOCTYPE svg PUBLIC "-//W3C//DTD SVG 1.1//EN" "http://www.w3.org/Graphics/SVG/1.1/DTD/svg11.dtd">
<svg version="1.1" id="Layer_1" xmlns="http://www.w3.org/2000/svg" xmlns:xlink="http://www.w3.org/1999/xlink" x="0px" y="0px"
	 width="37px" height="33px" viewBox="0 0 37 33" enable-background="new 0 0 37 33" xml:space="preserve">
<g>
	<path fill="#000000" d="M2,11.083c-1.104,0-2,0.896-2,2v6.167c0,1.104,0.896,2,2,2s2-0.896,2-2v-6.167
		C4,11.979,3.104,11.083,2,11.083z"/>
	<path fill="#000000" d="M35,11.083c-1.104,0-2,0.896-2,2v6.167c0,1.104,0.896,2,2,2s2-0.896,2-2v-6.167
		C37,11.979,36.104,11.083,35,11.083z"/>
	<path fill="#000000" d="M28.4,4.083c-1.104,0-2,0.896-2,2V26.25c0,1.104,0.896,2,2,2s2-0.896,2-2V6.083
		C30.4,4.979,29.505,4.083,28.4,4.083z"/>
	<path fill="#000000" d="M21.8,6.083c-1.104,0-2,0.896-2,2V24.25c0,1.104,0.896,2,2,2s2-0.896,2-2V8.083
		C23.8,6.979,22.904,6.083,21.8,6.083z"/>
	<path fill="#000000" d="M15.2,0c-1.104,0-2,0.896-2,2v28.25c0,1.104,0.896,2,2,2s2-0.896,2-2V2C17.2,0.896,16.305,0,15.2,0z"/>
	<path fill="#000000" d="M8.6,7.083c-1.104,0-2,0.896-2,2V23.25c0,1.104,0.896,2,2,2s2-0.896,2-2V9.083
		C10.6,7.979,9.705,7.083,8.6,7.083z"/>
</g>
</svg>
