<?xml version="1.0" encoding="utf-8"?>
<!-- Generator: Adobe Illustrator 16.0.0, SVG Export Plug-In . SVG Version: 6.00 Build 0)  -->
<!DOCTYPE svg PUBLIC "-//W3C//DTD SVG 1.1//EN" "http://www.w3.org/Graphics/SVG/1.1/DTD/svg11.dtd">
<svg version="1.1" id="Layer_1" xmlns="http://www.w3.org/2000/svg" xmlns:xlink="http://www.w3.org/1999/xlink" x="0px" y="0px"
	 width="216px" height="216px" viewBox="0 0 216 216" enable-background="new 0 0 216 216" xml:space="preserve">
<g>
	<rect y="172.666" fill="#ECF1F3" width="54" height="43.334"/>
	<rect x="36" y="173.333" fill="#BDC2C5" width="54" height="42.667"/>
	<rect x="72" y="173.666" fill="#656568" width="50.333" height="42.334"/>
	<rect x="108" y="171.333" fill="#4B3961" width="48" height="44.667"/>
	<rect x="144" y="171.333" fill="#512E54" width="48.667" height="44.667"/>
	<rect x="180" y="171.333" fill="#323534" width="36" height="44.667"/>
	<rect y="136.666" fill="#E6EAEE" width="43.667" height="43.334"/>
	<rect x="36" y="138" fill="#4A4B4E" width="45.333" height="42"/>
	<rect x="72" y="138" fill="#222325" width="44.333" height="42"/>
	<rect x="108" y="137.333" fill="#CD8164" width="42.666" height="42.667"/>
	<rect x="144" y="136.666" fill="#BF6946" width="43.333" height="43.334"/>
	<rect x="180" y="135.666" fill="#8E9190" width="36" height="44.334"/>
	<rect y="98.334" fill="#ECF3F7" width="46.334" height="45.666"/>
	<rect x="36" y="95.667" fill="#CECAD8" width="45.333" height="48.333"/>
	<rect x="72" y="102" fill="#161616" width="44.333" height="42"/>
	<rect x="108" y="101" fill="#5B3124" width="41.999" height="43"/>
	<rect x="144" y="101" fill="#BE7964" width="41.001" height="43"/>
	<rect x="180" y="98.334" fill="#888057" width="36" height="45.666"/>
	<rect y="68.333" fill="#88777B" width="41" height="39.667"/>
	<rect x="36" y="66.335" fill="#301F1B" width="42" height="41.665"/>
	<rect x="72" y="67.666" fill="#A66B5A" width="42" height="40.334"/>
	<rect x="108" y="68.664" fill="#FFD3B1" width="40.667" height="39.336"/>
	<rect x="144" y="66.335" fill="#E09A7E" width="41.001" height="41.665"/>
	<rect x="180" y="67.333" fill="#486743" width="36" height="40.667"/>
	<rect y="27.335" fill="#AAB1B6" width="43.667" height="44.665"/>
	<rect x="36" y="27.335" fill="#283246" width="42" height="44.665"/>
	<rect x="72" y="31.335" fill="#A05E3A" width="42" height="40.665"/>
	<rect x="108" y="28.333" fill="#8A5037" width="42.666" height="43.667"/>
	<rect x="144" y="28.333" fill="#81605C" width="42.333" height="43.667"/>
	<rect x="180" y="31.335" fill="#857F72" width="36" height="40.665"/>
	<rect fill="#EBEBEB" width="43.667" height="36"/>
	<rect x="36" fill="#443025" width="42" height="36"/>
	<rect x="72" fill="#402E73" width="44.333" height="36"/>
	<rect x="108" fill="#655D59" width="42.666" height="36"/>
	<rect x="144" fill="#51463E" width="43.333" height="36"/>
	<rect x="180" fill="#946A57" width="36" height="36"/>
</g>
</svg>
